<svg width="30" height="26" viewBox="0 0 30 26" fill="none" xmlns="http://www.w3.org/2000/svg">
<g clip-path="url(#clip0_131_1450)">
<path d="M30 12.7181C29.9995 10.2878 29.1778 7.90853 27.632 5.86193C26.0861 3.81532 23.881 2.18709 21.2777 1.17C18.6743 0.152901 15.7817 -0.210463 12.9423 0.12292C10.1029 0.456303 7.43568 1.47247 5.25632 3.05113C3.07695 4.62978 1.47674 6.70481 0.64513 9.03056C-0.186482 11.3563 -0.21467 13.8354 0.563902 16.1743C1.34247 18.5132 2.8952 20.614 5.03827 22.228C7.18133 23.842 9.82498 24.9015 12.6562 25.2813V16.3942H8.84812V12.7181H12.6562V9.91628C12.6562 6.72898 14.8959 4.96842 18.3216 4.96842C19.4466 4.98165 20.5689 5.06453 21.6797 5.21641V8.34648H19.7878C19.4654 8.31018 19.1375 8.33585 18.8284 8.42159C18.5193 8.50733 18.237 8.65094 18.0022 8.84179C17.7675 9.03263 17.5864 9.26581 17.4724 9.52405C17.3585 9.78229 17.3145 10.059 17.3438 10.3336V12.7181H21.5044L20.8388 16.3942H17.3438V25.2813C20.8723 24.808 24.0858 23.2826 26.4059 20.9795C28.7261 18.6764 30.0006 15.7469 30 12.7181Z" fill="#121127" fill-opacity="0.56"/>
</g>
<defs>
<clipPath id="clip0_131_1450">
<rect width="30" height="25.4348" fill="white"/>
</clipPath>
</defs>
</svg>
