<svg width="30" height="30" viewBox="0 0 30 30" fill="none" xmlns="http://www.w3.org/2000/svg">
<g clip-path="url(#clip0_137_1109)">
<path d="M30 5.71875C28.875 6.1875 27.75 6.5625 26.4375 6.65625C27.75 5.90625 28.6875 4.6875 29.1562 3.28125C27.9375 4.03125 26.625 4.5 25.2188 4.78125C24.0938 3.5625 22.5 2.8125 20.8125 2.8125C17.4375 2.8125 14.625 5.53125 14.625 9C14.625 9.46875 14.7188 9.9375 14.8125 10.4063C9.65625 10.125 5.15625 7.6875 2.0625 3.9375C1.5 4.875 1.21875 5.90625 1.21875 7.03125C1.21875 9.1875 2.34375 11.0625 3.9375 12.1875C2.90625 12.1875 1.96875 11.9062 1.125 11.4375V11.5312C1.125 14.5312 3.28125 16.9688 6.09375 17.5313C5.53125 17.625 5.0625 17.7188 4.5 17.7188C4.125 17.7188 3.75 17.7187 3.375 17.625C4.125 20.0625 6.46875 21.8438 9.09375 21.9375C7.03125 23.625 4.3125 24.5625 1.40625 24.5625C0.9375 24.5625 0.375 24.5625 -0.09375 24.4688C2.71875 26.1562 6 27.1875 9.46875 27.1875C20.8125 27.1875 27 17.8125 27 9.65625C27 9.375 27 9.09375 27 8.90625C28.125 7.96875 29.1562 6.9375 30 5.71875Z" fill="#121127" fill-opacity="0.56"/>
</g>
<defs>
<clipPath id="clip0_137_1109">
<rect width="30" height="30" fill="white"/>
</clipPath>
</defs>
</svg>
